<svg width="64" height="64" viewBox="0 0 64 64" fill="none" xmlns="http://www.w3.org/2000/svg">
  <rect width="64" height="64" rx="16" fill="#FFF9F3"/>
  <circle cx="32" cy="32" r="28" stroke="url(#ring)" stroke-width="4"/>
  <path d="M14 23.5H50" stroke="#4B9B29" stroke-width="4.2" stroke-linecap="round"/>
  <path d="M19 22C22.2 18.7 26.8 17 32 17C37.2 17 41.8 18.7 45 22" stroke="#555C67" stroke-width="3.8" stroke-linecap="round"/>
  <path d="M21 16.8C22.5 16.8 23.7 18 23.7 19.5C23.7 21 22.5 22.2 21 22.2C19.5 22.2 18.3 21 18.3 19.5C18.3 18 19.5 16.8 21 16.8Z" fill="#F47B20"/>
  <path d="M26.5 14.6C28 14.6 29.2 15.8 29.2 17.3C29.2 18.8 28 20 26.5 20C25 20 23.8 18.8 23.8 17.3C23.8 15.8 25 14.6 26.5 14.6Z" fill="#E94D9C"/>
  <path d="M32 16.8C33.5 16.8 34.7 18 34.7 19.5C34.7 21 33.5 22.2 32 22.2C30.5 22.2 29.3 21 29.3 19.5C29.3 18 30.5 16.8 32 16.8Z" fill="#6D44B8"/>
  <path d="M41.5 16.8C43 16.8 44.2 18 44.2 19.5C44.2 21 43 22.2 41.5 22.2C40 22.2 38.8 21 38.8 19.5C38.8 18 40 16.8 41.5 16.8Z" fill="#F5C11C"/>
  <path d="M36 35C39 33.7 42 33.7 45 35" stroke="#58B9E8" stroke-width="2.8" stroke-linecap="round"/>
  <text x="11.5" y="52" fill="#145AA4" font-size="31" font-family="Arial, sans-serif" font-weight="900">B</text>
  <text x="31" y="52" fill="#4B9B29" font-size="31" font-family="Arial, sans-serif" font-weight="900">B</text>
  <defs>
    <linearGradient id="ring" x1="8" y1="8" x2="56" y2="56" gradientUnits="userSpaceOnUse">
      <stop stop-color="#2392E2"/>
      <stop offset="1" stop-color="#7ABF2A"/>
    </linearGradient>
  </defs>
</svg>
